<?xml version="1.0" encoding="UTF-8"?>
<svg xmlns="http://www.w3.org/2000/svg" xmlns:xlink="http://www.w3.org/1999/xlink" width="240px" height="60px" viewBox="0 0 240 60" version="1.1">
<g id="surface1">
<path style=" stroke:none;fill-rule:nonzero;fill:rgb(51.372549%,72.156863%,10.196078%);fill-opacity:1;" d="M 237.933594 3.992188 C 237.113281 2.882812 236.277344 2.042969 232.128906 1.761719 C 231.027344 1.761719 227.710938 1.480469 221.90625 1.480469 C 206.691406 1.480469 196.179688 6.234375 190.925781 15.464844 C 192.320312 6.234375 183.46875 1.480469 164.101562 1.480469 C 141.425781 1.480469 127.046875 10.710938 121.242188 29.441406 C 119.03125 36.429688 119.03125 42.023438 120.6875 46.496094 L 115.152344 46.496094 C 111.003906 46.78125 105.476562 47.0625 101.882812 47.0625 C 93.589844 47.0625 88.335938 45.660156 86.394531 42.863281 C 84.742188 40.34375 84.742188 35.59375 86.949219 28.601562 C 90.542969 17.136719 99.117188 12.109375 112.945312 12.109375 C 120.136719 12.109375 127.046875 12.945312 127.046875 12.945312 C 127.875 12.945312 128.433594 11.828125 128.433594 11 L 128.148438 10.148438 L 127.609375 6.234375 C 127.320312 3.71875 125.390625 2.328125 122.070312 1.761719 C 119.03125 1.480469 116.546875 1.480469 113.226562 1.480469 L 112.941406 1.480469 C 94.96875 1.480469 82.257812 7.625 75.335938 19.378906 C 77.820312 7.355469 69.535156 1.480469 50.453125 1.480469 C 39.65625 1.480469 31.921875 1.761719 27.496094 2.328125 C 23.90625 2.882812 21.6875 4.273438 20.855469 6.796875 L 19.203125 11.828125 C 18.921875 12.660156 19.476562 13.226562 20.585938 13.226562 C 21.417969 13.226562 24.730469 12.660156 30.265625 12.390625 C 37.730469 11.828125 42.988281 11.550781 46.578125 11.550781 C 57.085938 11.550781 61.796875 14.339844 60.132812 19.65625 C 59.84375 20.769531 59.019531 21.609375 57.632812 21.898438 C 47.679688 23.570312 39.65625 24.6875 33.859375 25.53125 C 17.265625 27.765625 7.589844 32.796875 5.101562 41.195312 C 1.503906 52.65625 10.351562 58.246094 31.644531 58.246094 C 42.148438 58.246094 51.273438 57.6875 58.46875 56.292969 C 62.609375 55.453125 64.824219 54.609375 65.65625 51.8125 L 69.535156 38.949219 C 69.253906 51.8125 77.816406 58.246094 96.085938 58.246094 C 103.824219 58.246094 111.289062 57.964844 114.882812 57.414062 C 118.472656 56.851562 120.40625 56.011719 121.242188 53.210938 L 122.078125 49.289062 C 125.949219 55.4375 134.515625 58.519531 147.519531 58.519531 C 161.34375 58.519531 169.359375 58.226562 171.578125 57.394531 C 173.507812 56.839844 174.617188 55.714844 175.175781 54.320312 C 175.175781 54.039062 175.175781 53.761719 175.445312 53.480469 L 177.109375 48.167969 C 177.382812 47.335938 176.820312 46.773438 175.71875 46.773438 L 166.875 47.335938 C 161.0625 47.609375 156.367188 47.886719 153.050781 47.886719 C 146.691406 47.886719 142.539062 47.335938 140.054688 46.484375 C 136.453125 45.089844 134.796875 42.578125 135.070312 38.382812 L 163 34.753906 C 175.445312 33.074219 184.015625 29.15625 188.164062 23.007812 L 178.484375 55.714844 C 178.203125 56.277344 178.484375 56.839844 178.761719 57.113281 C 179.039062 57.40625 179.597656 57.671875 180.699219 57.671875 L 192.320312 57.671875 C 194.242188 57.671875 195.078125 56.554688 195.347656 55.714844 L 205.585938 19.648438 C 206.960938 14.898438 211.109375 12.65625 218.863281 12.65625 C 225.773438 12.65625 230.75 12.65625 234.070312 12.9375 L 234.351562 12.9375 C 234.898438 12.9375 236.007812 12.65625 236.832031 11.257812 L 238.496094 6.226562 C 238.496094 5.390625 238.496094 4.546875 237.9375 3.988281 Z M 51.558594 47.0625 C 47.96875 47.617188 42.710938 47.902344 36.070312 47.902344 C 24.1875 47.902344 19.210938 45.378906 20.59375 40.625 C 21.695312 37.269531 24.734375 35.035156 29.710938 34.480469 L 56.539062 30.84375 Z M 175.175781 17.980469 C 174.066406 21.617188 168.816406 24.132812 159.414062 25.53125 L 137.011719 28.601562 L 137.5625 26.652344 C 139.496094 20.5 141.992188 16.585938 145.304688 14.34375 C 148.621094 12.109375 154.152344 10.988281 161.898438 10.988281 C 172.128906 11.277344 176.554688 13.515625 175.175781 17.980469 Z M 175.175781 17.980469 "/>
</g>
</svg>
