<?xml version="1.0" encoding="UTF-8"?>
<svg xmlns="http://www.w3.org/2000/svg" xmlns:xlink="http://www.w3.org/1999/xlink" width="172px" height="43px" viewBox="0 0 171 43" version="1.1">
<g id="surface1">
<path style=" stroke:none;fill-rule:nonzero;fill:rgb(51.372549%,72.156863%,10.196078%);fill-opacity:1;" d="M 170.019531 2.863281 C 169.429688 2.066406 168.832031 1.464844 165.859375 1.261719 C 165.070312 1.261719 162.691406 1.0625 158.53125 1.0625 C 147.628906 1.0625 140.097656 4.46875 136.332031 11.082031 C 137.328125 4.46875 130.984375 1.0625 117.105469 1.0625 C 100.855469 1.0625 90.550781 7.675781 86.390625 21.101562 C 84.804688 26.109375 84.804688 30.117188 85.992188 33.320312 L 82.027344 33.320312 C 79.054688 33.527344 75.09375 33.726562 72.515625 33.726562 C 66.574219 33.726562 62.808594 32.722656 61.417969 30.71875 C 60.230469 28.914062 60.230469 25.507812 61.8125 20.5 C 64.390625 12.28125 70.535156 8.675781 80.445312 8.675781 C 85.597656 8.675781 90.550781 9.277344 90.550781 9.277344 C 91.144531 9.277344 91.542969 8.476562 91.542969 7.882812 L 91.339844 7.273438 L 90.953125 4.46875 C 90.746094 2.664062 89.363281 1.667969 86.984375 1.261719 C 84.804688 1.0625 83.023438 1.0625 80.644531 1.0625 L 80.441406 1.0625 C 67.5625 1.0625 58.449219 5.464844 53.492188 13.886719 C 55.273438 5.269531 49.332031 1.0625 35.65625 1.0625 C 27.921875 1.0625 22.378906 1.261719 19.207031 1.667969 C 16.632812 2.066406 15.042969 3.0625 14.445312 4.871094 L 13.261719 8.476562 C 13.0625 9.074219 13.457031 9.480469 14.253906 9.480469 C 14.847656 9.480469 17.222656 9.074219 21.191406 8.878906 C 26.539062 8.476562 30.308594 8.277344 32.882812 8.277344 C 40.410156 8.277344 43.785156 10.277344 42.59375 14.085938 C 42.390625 14.886719 41.796875 15.488281 40.804688 15.695312 C 33.671875 16.890625 27.921875 17.695312 23.765625 18.296875 C 11.871094 19.898438 4.9375 23.503906 3.15625 29.523438 C 0.578125 37.734375 6.917969 41.742188 22.179688 41.742188 C 29.707031 41.742188 36.246094 41.34375 41.402344 40.34375 C 44.371094 39.742188 45.957031 39.136719 46.554688 37.132812 L 49.332031 27.914062 C 49.132812 37.132812 55.269531 41.742188 68.359375 41.742188 C 73.90625 41.742188 79.257812 41.542969 81.832031 41.144531 C 84.40625 40.742188 85.792969 40.140625 86.390625 38.136719 L 86.988281 35.324219 C 89.761719 39.730469 95.902344 41.9375 105.222656 41.9375 C 115.128906 41.9375 120.875 41.730469 122.464844 41.132812 C 123.847656 40.734375 124.644531 39.929688 125.042969 38.929688 C 125.042969 38.726562 125.042969 38.527344 125.234375 38.328125 L 126.425781 34.519531 C 126.625 33.921875 126.222656 33.519531 125.433594 33.519531 L 119.09375 33.921875 C 114.929688 34.121094 111.5625 34.320312 109.1875 34.320312 C 104.628906 34.320312 101.652344 33.921875 99.871094 33.316406 C 97.292969 32.3125 96.105469 30.511719 96.300781 27.507812 L 116.316406 24.90625 C 125.234375 23.703125 131.378906 20.894531 134.351562 16.488281 L 127.414062 39.929688 C 127.214844 40.332031 127.414062 40.734375 127.613281 40.929688 C 127.8125 41.140625 128.210938 41.332031 129 41.332031 L 137.328125 41.332031 C 138.707031 41.332031 139.308594 40.53125 139.5 39.929688 L 146.835938 14.082031 C 147.824219 10.675781 150.796875 9.070312 156.351562 9.070312 C 161.304688 9.070312 164.871094 9.070312 167.25 9.273438 L 167.453125 9.273438 C 167.84375 9.273438 168.636719 9.070312 169.230469 8.070312 L 170.421875 4.460938 C 170.421875 3.863281 170.421875 3.257812 170.023438 2.859375 Z M 36.449219 33.726562 C 33.875 34.125 30.109375 34.328125 25.351562 34.328125 C 16.835938 34.328125 13.265625 32.523438 14.257812 29.117188 C 15.046875 26.710938 17.226562 25.109375 20.792969 24.710938 L 40.019531 22.105469 Z M 125.042969 12.886719 C 124.246094 15.492188 120.484375 17.292969 113.746094 18.296875 L 97.691406 20.5 L 98.085938 19.101562 C 99.472656 14.691406 101.261719 11.886719 103.632812 10.28125 C 106.011719 8.675781 109.976562 7.875 115.527344 7.875 C 122.859375 8.082031 126.03125 9.683594 125.042969 12.886719 Z M 125.042969 12.886719 "/>
</g>
</svg>
