<?xml version="1.0" encoding="UTF-8"?>
<svg xmlns="http://www.w3.org/2000/svg" xmlns:xlink="http://www.w3.org/1999/xlink" width="148px" height="37px" viewBox="0 0 147 37" version="1.1">
<g id="surface1">
<path style=" stroke:none;fill-rule:nonzero;fill:rgb(51.372549%,72.156863%,10.196078%);fill-opacity:1;" d="M 146.652344 2.464844 C 146.140625 1.777344 145.625 1.261719 143.050781 1.085938 C 142.367188 1.085938 140.308594 0.914062 136.707031 0.914062 C 127.273438 0.914062 120.753906 3.84375 117.496094 9.535156 C 118.355469 3.84375 112.867188 0.914062 100.855469 0.914062 C 86.789062 0.914062 77.871094 6.605469 74.269531 18.15625 C 72.898438 22.464844 72.898438 25.914062 73.925781 28.671875 L 70.496094 28.671875 C 67.921875 28.847656 64.492188 29.019531 62.261719 29.019531 C 57.121094 29.019531 53.859375 28.15625 52.65625 26.433594 C 51.628906 24.878906 51.628906 21.949219 53 17.640625 C 55.230469 10.566406 60.546875 7.464844 69.125 7.464844 C 73.585938 7.464844 77.871094 7.984375 77.871094 7.984375 C 78.386719 7.984375 78.730469 7.292969 78.730469 6.78125 L 78.554688 6.257812 L 78.21875 3.84375 C 78.039062 2.292969 76.84375 1.433594 74.785156 1.085938 C 72.898438 0.914062 71.355469 0.914062 69.296875 0.914062 L 69.121094 0.914062 C 57.976562 0.914062 50.085938 4.703125 45.796875 11.949219 C 47.339844 4.535156 42.195312 0.914062 30.359375 0.914062 C 23.667969 0.914062 18.867188 1.085938 16.125 1.433594 C 13.894531 1.777344 12.519531 2.636719 12.003906 4.191406 L 10.976562 7.292969 C 10.804688 7.808594 11.148438 8.15625 11.835938 8.15625 C 12.351562 8.15625 14.40625 7.808594 17.839844 7.640625 C 22.46875 7.292969 25.730469 7.121094 27.960938 7.121094 C 34.476562 7.121094 37.394531 8.84375 36.363281 12.121094 C 36.1875 12.808594 35.675781 13.328125 34.816406 13.503906 C 28.644531 14.535156 23.667969 15.226562 20.070312 15.742188 C 9.773438 17.121094 3.773438 20.222656 2.230469 25.402344 C 0 32.46875 5.488281 35.917969 18.695312 35.917969 C 25.210938 35.917969 30.871094 35.574219 35.332031 34.714844 C 37.902344 34.195312 39.277344 33.675781 39.792969 31.953125 L 42.195312 24.019531 C 42.023438 31.953125 47.335938 35.917969 58.664062 35.917969 C 63.464844 35.917969 68.097656 35.746094 70.324219 35.402344 C 72.554688 35.058594 73.753906 34.539062 74.269531 32.816406 L 74.789062 30.394531 C 77.1875 34.1875 82.503906 36.085938 90.570312 36.085938 C 99.144531 36.085938 104.117188 35.90625 105.492188 35.394531 C 106.691406 35.050781 107.378906 34.359375 107.722656 33.496094 C 107.722656 33.324219 107.722656 33.152344 107.890625 32.980469 L 108.921875 29.703125 C 109.09375 29.1875 108.746094 28.84375 108.0625 28.84375 L 102.574219 29.1875 C 98.972656 29.359375 96.058594 29.53125 94 29.53125 C 90.054688 29.53125 87.480469 29.1875 85.9375 28.667969 C 83.707031 27.804688 82.679688 26.253906 82.847656 23.667969 L 100.171875 21.429688 C 107.890625 20.394531 113.207031 17.980469 115.78125 14.1875 L 109.777344 34.359375 C 109.605469 34.703125 109.777344 35.050781 109.949219 35.21875 C 110.121094 35.398438 110.464844 35.566406 111.148438 35.566406 L 118.355469 35.566406 C 119.550781 35.566406 120.070312 34.875 120.238281 34.359375 L 126.585938 12.117188 C 127.441406 9.1875 130.015625 7.804688 134.820312 7.804688 C 139.109375 7.804688 142.195312 7.804688 144.253906 7.980469 L 144.429688 7.980469 C 144.769531 7.980469 145.453125 7.804688 145.96875 6.945312 L 147 3.839844 C 147 3.324219 147 2.804688 146.65625 2.460938 Z M 31.046875 29.019531 C 28.820312 29.363281 25.558594 29.539062 21.441406 29.539062 C 14.070312 29.539062 10.980469 27.984375 11.839844 25.054688 C 12.523438 22.984375 14.410156 21.605469 17.496094 21.261719 L 34.136719 19.019531 Z M 107.722656 11.089844 C 107.035156 13.332031 103.777344 14.878906 97.945312 15.742188 L 84.050781 17.640625 L 84.394531 16.4375 C 85.59375 12.640625 87.140625 10.226562 89.195312 8.847656 C 91.253906 7.464844 94.683594 6.777344 99.488281 6.777344 C 105.835938 6.953125 108.578125 8.332031 107.722656 11.089844 Z M 107.722656 11.089844 "/>
</g>
</svg>
