<?xml version="1.0" encoding="UTF-8"?>
<svg xmlns="http://www.w3.org/2000/svg" xmlns:xlink="http://www.w3.org/1999/xlink" width="2809px" height="600px" viewBox="0 0 2808 600" version="1.1">
<g id="surface1">
<path style=" stroke:none;fill-rule:nonzero;fill:rgb(43.921569%,42.745098%,43.137255%);fill-opacity:1;" d="M 2808 271.441406 L 2808 222.042969 L 2746.675781 222.042969 L 2746.675781 145.242188 L 2744.613281 145.878906 L 2687.011719 163.507812 L 2685.875 163.855469 L 2685.875 222.046875 L 2594.964844 222.046875 L 2594.964844 189.628906 C 2594.964844 174.53125 2598.335938 162.980469 2604.988281 155.277344 C 2611.589844 147.667969 2621.035156 143.796875 2633.082031 143.796875 C 2641.742188 143.796875 2650.707031 145.839844 2659.730469 149.863281 L 2661.996094 150.875 L 2661.996094 98.847656 L 2660.929688 98.457031 C 2652.511719 95.429688 2641.0625 93.90625 2626.871094 93.90625 C 2608.980469 93.90625 2592.730469 97.800781 2578.558594 105.515625 C 2564.375 113.246094 2553.21875 124.277344 2545.402344 138.304688 C 2537.617188 152.3125 2533.664062 168.496094 2533.664062 186.402344 L 2533.664062 222.042969 L 2490.964844 222.042969 L 2490.964844 271.441406 L 2533.664062 271.441406 L 2533.664062 479.558594 L 2594.964844 479.558594 L 2594.964844 271.441406 L 2685.875 271.441406 L 2685.875 403.695312 C 2685.875 458.164062 2711.558594 485.765625 2762.210938 485.765625 C 2770.535156 485.765625 2779.292969 484.789062 2788.238281 482.878906 C 2797.34375 480.917969 2803.546875 478.960938 2807.195312 476.867188 L 2808.003906 476.390625 L 2808.003906 426.53125 L 2805.507812 428.179688 C 2802.179688 430.398438 2798.039062 432.210938 2793.183594 433.558594 C 2788.304688 434.929688 2784.230469 435.617188 2781.074219 435.617188 C 2769.207031 435.617188 2760.429688 432.421875 2754.984375 426.109375 C 2749.472656 419.738281 2746.679688 408.601562 2746.679688 393.019531 L 2746.679688 271.441406 Z M 2354.070312 435.625 C 2331.820312 435.625 2314.277344 428.246094 2301.917969 413.710938 C 2289.480469 399.097656 2283.175781 378.265625 2283.175781 351.800781 C 2283.175781 324.496094 2289.480469 303.125 2301.921875 288.253906 C 2314.292969 273.484375 2331.667969 265.984375 2353.570312 265.984375 C 2374.824219 265.984375 2391.746094 273.144531 2403.867188 287.277344 C 2416.046875 301.484375 2422.230469 322.683594 2422.230469 350.308594 C 2422.230469 378.273438 2416.414062 399.753906 2404.953125 414.121094 C 2393.570312 428.382812 2376.449219 435.625 2354.070312 435.625 M 2356.796875 215.839844 C 2314.347656 215.839844 2280.632812 228.28125 2256.59375 252.820312 C 2232.570312 277.363281 2220.390625 311.328125 2220.390625 353.777344 C 2220.390625 394.097656 2232.277344 426.527344 2255.730469 450.152344 C 2279.183594 473.789062 2311.101562 485.761719 2350.589844 485.761719 C 2391.734375 485.761719 2424.78125 473.144531 2448.808594 448.265625 C 2472.835938 423.414062 2485.007812 389.769531 2485.007812 348.3125 C 2485.007812 307.363281 2473.582031 274.691406 2451.046875 251.21875 C 2428.5 227.742188 2396.78125 215.839844 2356.796875 215.839844 M 2121.554688 215.839844 C 2092.679688 215.839844 2068.796875 223.226562 2050.550781 237.792969 C 2032.191406 252.449219 2022.882812 271.667969 2022.882812 294.925781 C 2022.882812 307.015625 2024.890625 317.753906 2028.847656 326.863281 C 2032.824219 336 2038.984375 344.046875 2047.164062 350.796875 C 2055.285156 357.496094 2067.816406 364.511719 2084.425781 371.652344 C 2098.386719 377.398438 2108.800781 382.257812 2115.414062 386.089844 C 2121.878906 389.847656 2126.464844 393.621094 2129.058594 397.296875 C 2131.574219 400.894531 2132.851562 405.816406 2132.851562 411.894531 C 2132.851562 429.195312 2119.902344 437.613281 2093.25 437.613281 C 2083.367188 437.613281 2072.089844 435.546875 2059.738281 431.476562 C 2047.476562 427.46875 2035.902344 421.597656 2025.421875 414.070312 L 2022.875 412.246094 L 2022.875 471.28125 L 2023.808594 471.71875 C 2032.484375 475.722656 2043.417969 479.101562 2056.308594 481.757812 C 2069.171875 484.417969 2080.863281 485.773438 2091.015625 485.773438 C 2122.347656 485.773438 2147.582031 478.347656 2165.992188 463.695312 C 2184.519531 448.9375 2193.910156 429.265625 2193.910156 405.203125 C 2193.910156 387.847656 2188.855469 372.960938 2178.890625 360.957031 C 2168.996094 349.046875 2151.820312 338.117188 2127.863281 328.453125 C 2108.78125 320.792969 2096.554688 314.429688 2091.507812 309.546875 C 2086.648438 304.828125 2084.179688 298.160156 2084.179688 289.710938 C 2084.179688 282.222656 2087.226562 276.222656 2093.480469 271.363281 C 2099.785156 266.480469 2108.5625 263.996094 2119.570312 263.996094 C 2129.78125 263.996094 2140.234375 265.609375 2150.625 268.773438 C 2161.011719 271.9375 2170.132812 276.171875 2177.746094 281.355469 L 2180.25 283.066406 L 2180.25 227.0625 L 2179.289062 226.652344 C 2172.261719 223.636719 2163 221.058594 2151.75 218.964844 C 2140.550781 216.886719 2130.390625 215.839844 2121.554688 215.839844 M 1863.078125 435.625 C 1840.832031 435.625 1823.285156 428.246094 1810.925781 413.710938 C 1798.484375 399.097656 1792.195312 378.273438 1792.195312 351.800781 C 1792.195312 324.496094 1798.492188 303.125 1810.941406 288.253906 C 1823.300781 273.484375 1840.667969 265.984375 1862.585938 265.984375 C 1883.832031 265.984375 1900.753906 273.144531 1912.875 287.277344 C 1925.058594 301.484375 1931.238281 322.683594 1931.238281 350.308594 C 1931.238281 378.273438 1925.421875 399.753906 1913.960938 414.121094 C 1902.574219 428.382812 1885.464844 435.625 1863.078125 435.625 M 1865.808594 215.839844 C 1823.351562 215.839844 1789.632812 228.28125 1765.605469 252.820312 C 1741.582031 277.363281 1729.394531 311.328125 1729.394531 353.777344 C 1729.394531 394.113281 1741.292969 426.527344 1764.746094 450.152344 C 1788.199219 473.789062 1820.113281 485.761719 1859.601562 485.761719 C 1900.742188 485.761719 1933.792969 473.144531 1957.824219 448.265625 C 1981.84375 423.414062 1994.019531 389.769531 1994.019531 348.3125 C 1994.019531 307.363281 1982.59375 274.691406 1960.050781 251.21875 C 1937.5 227.742188 1905.789062 215.839844 1865.808594 215.839844 M 1636.34375 266.636719 L 1636.34375 222.042969 L 1575.792969 222.042969 L 1575.792969 479.550781 L 1636.34375 479.550781 L 1636.34375 347.824219 C 1636.34375 325.425781 1641.421875 307.027344 1651.4375 293.125 C 1661.328125 279.394531 1674.507812 272.433594 1690.601562 272.433594 C 1696.054688 272.433594 1702.175781 273.332031 1708.808594 275.113281 C 1715.371094 276.882812 1720.125 278.804688 1722.925781 280.824219 L 1725.472656 282.671875 L 1725.472656 221.601562 L 1724.492188 221.179688 C 1718.851562 218.785156 1710.875 217.574219 1700.78125 217.574219 C 1685.5625 217.574219 1671.949219 222.464844 1660.285156 232.097656 C 1650.046875 240.5625 1642.644531 252.167969 1636.988281 266.636719 Z M 1467.351562 215.839844 C 1439.574219 215.839844 1414.792969 221.796875 1393.71875 233.542969 C 1372.597656 245.320312 1356.265625 262.128906 1345.152344 283.503906 C 1334.089844 304.824219 1328.472656 329.730469 1328.472656 357.507812 C 1328.472656 381.839844 1333.917969 404.164062 1344.683594 423.84375 C 1355.453125 443.554688 1370.699219 458.976562 1389.996094 469.671875 C 1409.265625 480.351562 1431.535156 485.769531 1456.195312 485.769531 C 1484.972656 485.769531 1509.539062 480.015625 1529.238281 468.664062 L 1530.035156 468.207031 L 1530.035156 412.710938 L 1527.488281 414.570312 C 1518.566406 421.074219 1508.59375 426.261719 1497.867188 430.003906 C 1487.164062 433.738281 1477.40625 435.625 1468.851562 435.625 C 1445.089844 435.625 1426.015625 428.191406 1412.171875 413.527344 C 1398.296875 398.84375 1391.261719 378.230469 1391.261719 352.289062 C 1391.261719 326.183594 1398.597656 305.035156 1413.054688 289.433594 C 1427.472656 273.878906 1446.582031 265.984375 1469.847656 265.984375 C 1489.753906 265.984375 1509.148438 272.726562 1527.496094 286.042969 L 1530.035156 287.886719 L 1530.035156 229.414062 L 1529.214844 228.953125 C 1522.308594 225.085938 1512.890625 221.894531 1501.203125 219.472656 C 1489.558594 217.054688 1478.171875 215.839844 1467.351562 215.839844 M 1286.769531 222.046875 L 1226.214844 222.046875 L 1226.214844 479.550781 L 1286.769531 479.550781 Z M 1257.113281 112.34375 C 1247.144531 112.34375 1238.453125 115.738281 1231.3125 122.464844 C 1224.140625 129.207031 1220.503906 137.699219 1220.503906 147.722656 C 1220.503906 157.585938 1224.097656 165.921875 1231.199219 172.488281 C 1238.257812 179.03125 1246.976562 182.351562 1257.113281 182.351562 C 1267.25 182.351562 1276 179.03125 1283.140625 172.496094 C 1290.328125 165.921875 1293.976562 157.589844 1293.976562 147.722656 C 1293.976562 138.050781 1290.425781 129.644531 1283.4375 122.734375 C 1276.453125 115.839844 1267.59375 112.34375 1257.113281 112.34375 M 1106.027344 203.046875 L 1106.027344 479.550781 L 1167.824219 479.550781 L 1167.824219 120.226562 L 1082.296875 120.226562 L 973.582031 387.125 L 868.082031 120.226562 L 779.070312 120.226562 L 779.070312 479.550781 L 837.144531 479.550781 L 837.144531 203.019531 L 839.136719 203.019531 L 950.542969 479.550781 L 994.367188 479.550781 L 1104.035156 203.046875 Z M 1106.027344 203.046875 "/>
<path style=" stroke:none;fill-rule:nonzero;fill:rgb(94.509804%,31.764706%,10.588235%);fill-opacity:1;" d="M 284.855469 285.109375 L 0 285.109375 L 0 0.152344 L 284.855469 0.152344 Z M 284.855469 285.109375 "/>
<path style=" stroke:none;fill-rule:nonzero;fill:rgb(50.196078%,80%,15.686275%);fill-opacity:1;" d="M 599.371094 285.109375 L 314.519531 285.109375 L 314.519531 0.152344 L 599.371094 0.152344 Z M 599.371094 285.109375 "/>
<path style=" stroke:none;fill-rule:nonzero;fill:rgb(0%,67.843137%,93.72549%);fill-opacity:1;" d="M 284.847656 599.847656 L 0 599.847656 L 0 314.890625 L 284.847656 314.890625 Z M 284.847656 599.847656 "/>
<path style=" stroke:none;fill-rule:nonzero;fill:rgb(98.431373%,73.72549%,3.529412%);fill-opacity:1;" d="M 599.371094 599.847656 L 314.519531 599.847656 L 314.519531 314.890625 L 599.371094 314.890625 Z M 599.371094 599.847656 "/>
</g>
</svg>
