<?xml version="1.0" encoding="UTF-8"?>
<svg xmlns="http://www.w3.org/2000/svg" xmlns:xlink="http://www.w3.org/1999/xlink" width="327px" height="70px" viewBox="0 0 326 70" version="1.1">
<g id="surface1">
<path style=" stroke:none;fill-rule:evenodd;fill:rgb(90.980392%,31.764706%,10.588235%);fill-opacity:1;" d="M 166.425781 19.394531 C 157.363281 19.601562 150.3125 21.632812 142.148438 26.980469 C 142.808594 24.503906 143.476562 22.070312 144.136719 19.394531 L 122.710938 19.394531 L 116.761719 44.132812 C 114.75 52.605469 112.765625 60.847656 110.78125 69.320312 L 131.96875 69.320312 L 137.726562 45.695312 C 140.601562 33.445312 145.660156 27.203125 155.605469 26.980469 C 164.433594 26.980469 167.742188 32.316406 164.871094 43.894531 L 158.691406 69.320312 L 180.117188 69.320312 L 187.410156 38.992188 C 188.933594 32.316406 186.949219 27.871094 183.652344 24.503906 C 180.339844 21.167969 174.589844 19.394531 166.425781 19.394531 Z M 317.59375 14.457031 C 313.683594 14.457031 310.46875 17.695312 310.46875 21.636719 C 310.46875 25.617188 313.683594 28.839844 317.59375 28.839844 C 321.53125 28.839844 324.722656 25.617188 324.722656 21.636719 C 324.722656 17.695312 321.53125 14.457031 317.59375 14.457031 Z M 317.59375 28.058594 C 314.097656 28.058594 311.234375 25.179688 311.234375 21.636719 C 311.234375 18.101562 314.097656 15.226562 317.59375 15.226562 C 321.097656 15.226562 323.953125 18.101562 323.953125 21.636719 C 323.953125 25.179688 321.097656 28.058594 317.59375 28.058594 Z M 320.929688 20.046875 C 320.929688 19.105469 320.667969 18.351562 320.09375 17.863281 C 319.515625 17.359375 318.695312 17.117188 317.617188 17.117188 L 315.019531 17.117188 L 315.019531 26.195312 L 316.328125 26.195312 L 316.328125 21.984375 L 319.324219 26.195312 L 320.929688 26.195312 L 318.410156 22.691406 C 319.132812 22.660156 319.761719 22.390625 320.234375 21.90625 C 320.710938 21.402344 320.929688 20.777344 320.929688 20.046875 Z M 319.007812 21.378906 C 318.550781 21.675781 317.910156 21.816406 316.996094 21.816406 L 316.328125 21.816406 L 316.328125 18.351562 L 317.304688 18.351562 C 318.128906 18.351562 318.71875 18.449219 319.109375 18.734375 C 319.464844 19 319.683594 19.4375 319.683594 20.019531 C 319.683594 20.648438 319.441406 21.085938 319.007812 21.378906 Z M 298.238281 20.507812 C 292.039062 19.171875 284.984375 19.171875 278.578125 20.507812 C 275.484375 21.183594 272.847656 22.074219 270.394531 23.167969 C 264.902344 25.644531 264.207031 28.304688 262.242188 32.078125 C 264.015625 31.644531 268.214844 29.417969 273.066406 28.085938 C 274.84375 27.648438 276.59375 27.210938 278.578125 26.964844 C 286.085938 25.644531 293.8125 26.542969 291.609375 35.441406 C 287.195312 35.441406 282.753906 35.441406 278.578125 35.878906 C 276.375 36.125 274.386719 36.316406 272.410156 36.5625 C 259.820312 38.988281 252.308594 47.269531 251.660156 54.851562 L 251.660156 56.839844 C 252.308594 63.765625 258.710938 69.527344 272.847656 69.527344 L 278.578125 69.339844 L 284.3125 69.339844 L 299.554688 69.09375 L 308.476562 33.527344 C 308.972656 31.53125 309.085938 29.402344 308.492188 27.429688 C 307.292969 23.425781 304.132812 21.550781 298.238281 20.507812 Z M 285.445312 62.183594 L 279.015625 62.402344 L 278.578125 62.402344 C 262.242188 62.183594 262.886719 46.132812 276.160156 42.570312 C 277.039062 42.351562 277.695312 42.132812 278.578125 41.890625 C 282.5625 41.234375 286.523438 41.453125 290.722656 41.234375 Z M 81.648438 15.828125 L 3.039062 15.828125 L 1.277344 24.304688 L 28.21875 24.304688 L 16.949219 69.757812 L 38.375 69.757812 L 49.625 24.304688 Z M 244.15625 0.0195312 L 238.636719 21.402344 L 228 21.402344 C 225.367188 21.402344 222.9375 21.621094 220.519531 21.839844 C 212.578125 22.511719 205.925781 24.5 201.101562 27.402344 C 194.464844 31.425781 190.480469 37.460938 189.160156 45.230469 C 188.945312 46.589844 188.726562 47.707031 188.726562 48.816406 L 188.726562 50.804688 C 188.945312 55.941406 191.148438 60.179688 194.917969 63.304688 C 198.425781 66.175781 204.386719 66.859375 207.054688 66.859375 C 208.375 66.859375 214.566406 66.421875 220.519531 64.636719 C 223.394531 63.953125 226.03125 62.867188 228.480469 61.503906 C 225.804688 61.285156 223.15625 61.503906 220.519531 61.503906 C 215.648438 61.503906 211.019531 60.847656 207.492188 57.511719 C 204.605469 54.851562 203.746094 50.804688 204.847656 45.230469 C 205.738281 39.902344 207.953125 35.878906 211.6875 33.21875 C 214.566406 31.207031 217.421875 30.316406 220.519531 29.636719 C 225.804688 28.742188 231.3125 29.203125 236.644531 29.417969 L 228.480469 61.503906 C 227.816406 63.953125 226.921875 66.640625 226.488281 69.324219 C 233.542969 69.324219 244.15625 69.980469 245.691406 64.417969 L 262.027344 0.0195312 Z M 109.699219 51.046875 C 108.566406 51.046875 107.027344 51.484375 105.253906 52.589844 C 97.742188 57.058594 90.472656 59.960938 83.179688 61.285156 C 80.328125 61.746094 77.683594 61.941406 74.808594 61.941406 C 71.039062 61.941406 67.96875 61.066406 65.519531 59.742188 C 63.3125 58.1875 61.992188 56.378906 61.992188 53.953125 C 61.992188 50.148438 63.53125 48.144531 66.410156 48.144531 L 71.5 48.144531 C 75.238281 48.144531 79.007812 47.925781 83.1875 47.027344 C 86.953125 46.375 90.90625 45.230469 95.109375 43.691406 C 100.871094 41.453125 105.492188 38.988281 109.457031 35.878906 C 113.21875 32.78125 115.214844 29.878906 115.410156 27.210938 L 115.410156 26.542969 C 115.214844 24.5 114.082031 22.972656 111.90625 21.839844 C 109.238281 20.289062 105.707031 19.609375 101.292969 19.609375 C 95.539062 19.609375 89.351562 20.507812 83.179688 22.511719 C 81.1875 22.972656 79.203125 23.847656 77.453125 24.5 C 69.289062 27.648438 62.210938 32.082031 56.449219 37.65625 C 49.617188 44.355469 46.109375 50.804688 46.109375 57.058594 C 46.109375 60.863281 48.082031 63.765625 51.824219 65.988281 C 55.808594 68.195312 60.894531 69.324219 67.292969 69.324219 C 71.925781 69.324219 77.234375 68.875 82.96875 67.515625 L 83.1875 67.515625 C 88.707031 66.175781 93.546875 64.636719 97.992188 62.867188 C 101.296875 61.285156 104.609375 59.28125 107.246094 57.277344 C 110.128906 55.039062 111.664062 53.269531 111.664062 52.136719 C 111.664062 51.484375 111.011719 51.046875 109.699219 51.046875 Z M 69.289062 37.648438 C 71.039062 35.878906 73.035156 34.121094 75.238281 32.539062 C 77.875 30.535156 80.546875 29.203125 83.179688 28.085938 C 86.269531 26.542969 89.589844 25.863281 92.464844 25.863281 C 94.671875 26.082031 96.421875 26.324219 97.742188 27.210938 C 98.875 27.867188 99.539062 28.984375 99.539062 30.316406 C 99.539062 31.886719 98.417969 33.875 95.988281 35.878906 C 93.785156 37.65625 90.90625 39.230469 87.59375 40.558594 C 86.0625 41.015625 84.738281 41.234375 83.179688 41.695312 C 79.433594 42.351562 75.238281 42.789062 70.820312 42.789062 C 67.96875 42.789062 66.644531 42.351562 66.644531 41.695312 C 66.652344 40.796875 67.511719 39.683594 69.289062 37.648438 Z M 69.289062 37.648438 "/>
</g>
</svg>
