<?xml version="1.0" encoding="UTF-8"?>
<svg xmlns="http://www.w3.org/2000/svg" xmlns:xlink="http://www.w3.org/1999/xlink" width="280px" height="60px" viewBox="0 0 279 60" version="1.1">
<g id="surface1">
<path style=" stroke:none;fill-rule:evenodd;fill:rgb(90.980392%,31.764706%,10.588235%);fill-opacity:1;" d="M 142.441406 16.625 C 134.660156 16.800781 128.601562 18.542969 121.589844 23.125 C 122.15625 21.003906 122.730469 18.917969 123.296875 16.625 L 104.894531 16.625 L 99.785156 37.828125 C 98.058594 45.089844 96.355469 52.15625 94.648438 59.417969 L 112.847656 59.417969 L 117.792969 39.167969 C 120.261719 28.667969 124.605469 23.316406 133.148438 23.125 C 140.730469 23.125 143.574219 27.699219 141.105469 37.625 L 135.800781 59.417969 L 154.203125 59.417969 L 160.464844 33.421875 C 161.773438 27.699219 160.070312 23.890625 157.238281 21.003906 C 154.394531 18.144531 149.453125 16.625 142.441406 16.625 Z M 272.28125 12.390625 C 268.921875 12.390625 266.160156 15.167969 266.160156 18.546875 C 266.160156 21.957031 268.921875 24.71875 272.28125 24.71875 C 275.660156 24.71875 278.402344 21.957031 278.402344 18.546875 C 278.402344 15.167969 275.660156 12.390625 272.28125 12.390625 Z M 272.28125 24.050781 C 269.277344 24.050781 266.816406 21.582031 266.816406 18.546875 C 266.816406 15.515625 269.277344 13.050781 272.28125 13.050781 C 275.289062 13.050781 277.742188 15.515625 277.742188 18.546875 C 277.742188 21.582031 275.289062 24.050781 272.28125 24.050781 Z M 275.144531 17.183594 C 275.144531 16.375 274.921875 15.730469 274.425781 15.3125 C 273.929688 14.878906 273.226562 14.671875 272.300781 14.671875 L 270.070312 14.671875 L 270.070312 22.453125 L 271.191406 22.453125 L 271.191406 18.84375 L 273.765625 22.453125 L 275.144531 22.453125 L 272.980469 19.449219 C 273.601562 19.421875 274.140625 19.191406 274.546875 18.777344 C 274.957031 18.34375 275.144531 17.808594 275.144531 17.183594 Z M 273.496094 18.324219 C 273.101562 18.578125 272.550781 18.699219 271.765625 18.699219 L 271.191406 18.699219 L 271.191406 15.730469 L 272.03125 15.730469 C 272.738281 15.730469 273.246094 15.8125 273.582031 16.058594 C 273.886719 16.285156 274.074219 16.660156 274.074219 17.160156 C 274.074219 17.699219 273.867188 18.074219 273.496094 18.324219 Z M 255.65625 17.578125 C 250.332031 16.433594 244.273438 16.433594 238.769531 17.578125 C 236.113281 18.15625 233.847656 18.921875 231.742188 19.859375 C 227.023438 21.980469 226.425781 24.261719 224.738281 27.496094 C 226.261719 27.125 229.867188 25.214844 234.035156 24.074219 C 235.5625 23.699219 237.066406 23.324219 238.769531 23.113281 C 245.21875 21.980469 251.855469 22.75 249.960938 30.378906 C 246.171875 30.378906 242.355469 30.378906 238.769531 30.753906 C 236.878906 30.964844 235.167969 31.128906 233.472656 31.339844 C 222.660156 33.417969 216.207031 40.515625 215.648438 47.015625 L 215.648438 48.71875 C 216.207031 54.65625 221.707031 59.59375 233.847656 59.59375 L 238.769531 59.433594 L 243.695312 59.433594 L 256.785156 59.222656 L 264.449219 28.738281 C 264.875 27.027344 264.972656 25.203125 264.460938 23.511719 C 263.433594 20.078125 260.71875 18.472656 255.65625 17.578125 Z M 244.667969 53.300781 L 239.144531 53.488281 L 238.769531 53.488281 C 224.738281 53.300781 225.292969 39.542969 236.691406 36.488281 C 237.449219 36.300781 238.011719 36.113281 238.769531 35.90625 C 242.191406 35.34375 245.59375 35.53125 249.199219 35.34375 Z M 69.628906 13.566406 L 2.109375 13.566406 L 0.597656 20.832031 L 23.738281 20.832031 L 14.058594 59.792969 L 32.460938 59.792969 L 42.121094 20.832031 Z M 209.203125 0.015625 L 204.464844 18.34375 L 195.328125 18.34375 C 193.066406 18.34375 190.980469 18.53125 188.902344 18.71875 C 182.082031 19.296875 176.367188 21 172.226562 23.488281 C 166.523438 26.9375 163.101562 32.109375 161.96875 38.769531 C 161.785156 39.933594 161.597656 40.890625 161.597656 41.84375 L 161.597656 43.546875 C 161.785156 47.949219 163.675781 51.582031 166.914062 54.261719 C 169.925781 56.722656 175.046875 57.308594 177.339844 57.308594 C 178.472656 57.308594 183.789062 56.933594 188.902344 55.402344 C 191.371094 54.816406 193.636719 53.886719 195.742188 52.71875 C 193.441406 52.53125 191.167969 52.71875 188.902344 52.71875 C 184.71875 52.71875 180.742188 52.15625 177.714844 49.296875 C 175.234375 47.015625 174.496094 43.546875 175.441406 38.769531 C 176.207031 34.203125 178.109375 30.753906 181.316406 28.472656 C 183.789062 26.75 186.242188 25.984375 188.902344 25.402344 C 193.441406 24.636719 198.171875 25.03125 202.753906 25.214844 L 195.742188 52.71875 C 195.171875 54.816406 194.402344 57.121094 194.03125 59.421875 C 200.089844 59.421875 209.203125 59.984375 210.523438 55.214844 L 224.554688 0.015625 Z M 93.71875 43.753906 C 92.746094 43.753906 91.425781 44.128906 89.902344 45.078125 C 83.449219 48.90625 77.207031 51.394531 70.941406 52.53125 C 68.492188 52.925781 66.222656 53.09375 63.753906 53.09375 C 60.515625 53.09375 57.878906 52.34375 55.773438 51.207031 C 53.878906 49.875 52.746094 48.324219 52.746094 46.246094 C 52.746094 42.984375 54.066406 41.265625 56.539062 41.265625 L 60.910156 41.265625 C 64.121094 41.265625 67.359375 41.078125 70.949219 40.308594 C 74.183594 39.75 77.578125 38.769531 81.1875 37.449219 C 86.136719 35.53125 90.105469 33.417969 93.511719 30.753906 C 96.742188 28.097656 98.457031 25.609375 98.625 23.324219 L 98.625 22.75 C 98.457031 21 97.484375 19.691406 95.617188 18.71875 C 93.324219 17.390625 90.292969 16.808594 86.5 16.808594 C 81.558594 16.808594 76.242188 17.578125 70.941406 19.296875 C 69.230469 19.691406 67.527344 20.441406 66.023438 21 C 59.011719 23.699219 52.933594 27.5 47.984375 32.277344 C 42.117188 38.019531 39.101562 43.546875 39.101562 48.90625 C 39.101562 52.167969 40.796875 54.65625 44.011719 56.5625 C 47.433594 58.453125 51.800781 59.421875 57.296875 59.421875 C 61.277344 59.421875 65.835938 59.035156 70.761719 57.871094 L 70.949219 57.871094 C 75.691406 56.722656 79.847656 55.402344 83.664062 53.886719 C 86.503906 52.53125 89.347656 50.8125 91.613281 49.09375 C 94.089844 47.175781 95.40625 45.660156 95.40625 44.6875 C 95.40625 44.128906 94.847656 43.753906 93.71875 43.753906 Z M 59.011719 32.269531 C 60.515625 30.753906 62.230469 29.246094 64.121094 27.890625 C 66.386719 26.171875 68.679688 25.03125 70.941406 24.074219 C 73.597656 22.75 76.449219 22.167969 78.917969 22.167969 C 80.8125 22.355469 82.316406 22.5625 83.449219 23.324219 C 84.421875 23.886719 84.992188 24.84375 84.992188 25.984375 C 84.992188 27.332031 84.03125 29.035156 81.945312 30.753906 C 80.050781 32.277344 77.578125 33.625 74.734375 34.765625 C 73.417969 35.15625 72.28125 35.34375 70.941406 35.738281 C 67.726562 36.300781 64.121094 36.675781 60.328125 36.675781 C 57.878906 36.675781 56.742188 36.300781 56.742188 35.738281 C 56.746094 34.96875 57.484375 34.015625 59.011719 32.269531 Z M 59.011719 32.269531 "/>
</g>
</svg>
